<?xml version="1.0" standalone="no"?>
<!DOCTYPE svg PUBLIC "-//W3C//DTD SVG 20010904//EN"
 "http://www.w3.org/TR/2001/REC-SVG-20010904/DTD/svg10.dtd">
<svg version="1.0" xmlns="http://www.w3.org/2000/svg"
 width="512.000000pt" height="512.000000pt" viewBox="0 0 512.000000 512.000000"
 preserveAspectRatio="xMidYMid meet">

<g transform="translate(0.000000,512.000000) scale(0.100000,-0.100000)"
fill="#000000" stroke="none">
<path d="M2088 4546 c-111 -31 -187 -136 -188 -262 0 -21 -13 -50 -40 -85 -46
-61 -52 -103 -20 -137 32 -34 76 -29 116 14 55 58 85 118 99 200 16 93 40 124
96 124 57 0 89 -33 100 -100 10 -61 30 -94 80 -128 31 -21 43 -23 124 -20 71
2 96 7 117 23 37 28 60 71 70 130 9 63 42 95 97 95 53 0 88 -36 96 -98 9 -71
25 -124 48 -157 66 -95 296 -358 356 -407 77 -63 99 -107 87 -171 -13 -71 -43
-98 -176 -159 -69 -31 -150 -62 -180 -69 -112 -24 -222 4 -339 85 -53 36 -134
66 -177 66 -59 0 -128 -25 -191 -68 -37 -25 -90 -54 -117 -64 -65 -25 -163
-34 -223 -19 -78 19 -283 112 -314 144 -37 37 -53 95 -39 145 13 47 30 67 108
132 67 55 86 86 76 126 -7 26 -50 54 -84 54 -11 0 -60 -35 -112 -82 -115 -103
-143 -156 -143 -268 0 -118 59 -217 159 -270 35 -19 46 -32 56 -64 36 -121
124 -233 233 -295 l56 -32 -14 -44 c-42 -140 -164 -246 -315 -275 -29 -5 -206
-10 -394 -10 -378 0 -409 -4 -520 -63 -33 -18 -86 -57 -116 -87 -102 -102
-148 -209 -157 -360 -8 -149 32 -284 113 -378 20 -24 35 -44 33 -46 -2 -1 -42
-7 -87 -14 -366 -51 -569 -445 -406 -788 60 -128 176 -230 313 -276 l66 -23
1293 -3 c1149 -2 1295 -1 1322 13 52 27 52 106 0 132 -19 10 -177 13 -692 13
l-668 0 0 38 c0 20 -7 66 -16 102 -53 228 -238 408 -466 454 -97 20 -139 20
-236 0 -228 -46 -413 -226 -466 -454 -9 -36 -16 -82 -16 -104 l0 -38 -37 7
c-97 18 -214 108 -261 201 -52 102 -53 253 -2 361 53 115 157 192 287 213 32
6 346 10 713 10 l655 0 13 -78 c50 -319 379 -551 691 -488 138 28 232 79 326
175 91 93 149 212 164 334 l6 52 810 0 c752 0 813 -1 855 -18 109 -43 197
-131 236 -237 26 -70 23 -219 -5 -293 -40 -103 -157 -206 -263 -231 -26 -6
-28 -4 -28 26 0 18 -7 58 -15 88 -50 188 -195 339 -392 407 -66 22 -95 26
-188 26 -94 0 -122 -4 -190 -27 -150 -51 -278 -158 -344 -289 -35 -69 -61
-155 -61 -204 l0 -33 -52 0 c-64 0 -100 -17 -112 -51 -13 -39 0 -77 35 -94 26
-14 107 -16 692 -13 653 3 663 4 728 26 138 46 252 147 313 276 163 344 -40
737 -407 788 -45 7 -84 13 -86 14 -2 2 13 22 33 46 136 159 154 440 39 635
-40 68 -128 153 -199 190 -119 63 -115 63 -801 63 l-623 0 0 185 c0 179 1 185
22 196 74 39 182 176 213 268 13 40 22 51 56 66 22 10 62 43 89 72 61 67 84
130 78 223 -5 98 -44 169 -131 239 -61 49 -272 288 -332 377 -14 20 -25 51
-25 69 0 111 -80 220 -182 250 -72 21 -128 13 -197 -26 -63 -36 -108 -102
-117 -171 l-7 -49 -41 3 c-40 3 -41 4 -47 43 -20 146 -168 241 -311 201z m779
-1883 c-5 -257 -17 -320 -87 -470 -48 -103 -85 -157 -169 -245 -115 -122 -267
-213 -436 -260 -76 -21 -98 -22 -460 -23 l-380 0 -67 33 c-83 40 -158 119
-190 200 -18 47 -23 76 -23 162 0 93 3 111 27 163 38 80 115 158 191 193 55
25 78 29 207 35 101 5 165 14 211 28 159 50 304 193 354 349 10 28 18 52 19
52 0 0 16 -4 35 -10 158 -45 590 -40 712 9 13 5 32 10 43 10 18 1 18 -9 13
-226z m-1850 -255 c-79 -97 -117 -213 -117 -353 0 -140 34 -243 114 -348 l36
-47 -78 0 c-88 1 -144 12 -207 41 -224 106 -284 430 -114 623 76 86 171 125
312 125 l88 1 -34 -42z m2206 -32 c97 -450 640 -628 981 -324 89 79 186 240
186 308 0 29 14 25 60 -16 54 -49 107 -157 115 -236 23 -213 -104 -396 -303
-438 -30 -7 -358 -9 -901 -8 l-854 3 55 37 c216 143 411 449 444 697 l7 51 97
0 96 0 17 -74z m733 47 c-44 -85 -134 -114 -223 -73 -37 16 -83 68 -83 93 0 4
72 7 160 7 l161 0 -15 -27z m-1346 -931 c0 -28 -47 -90 -83 -109 -47 -25 -125
-22 -170 6 -34 21 -77 83 -77 111 0 6 57 10 165 10 151 0 165 -1 165 -18z
m-1462 -608 c51 -21 90 -61 102 -103 18 -64 25 -61 -160 -61 -185 0 -178 -3
-160 59 12 44 45 79 95 102 49 23 75 23 123 3z m2997 -63 c28 -16 75 -74 75
-92 0 -5 -74 -9 -165 -9 -91 0 -165 2 -165 5 0 4 6 18 14 33 43 83 156 113
241 63z"/>
<path d="M2095 4005 c-33 -32 -31 -67 4 -107 15 -18 31 -43 35 -55 9 -28 52
-63 78 -63 11 0 33 14 50 30 27 28 30 35 24 73 -9 54 -41 100 -87 126 -48 27
-75 26 -104 -4z"/>
<path d="M2690 4008 c-44 -30 -69 -66 -80 -114 -11 -48 4 -83 44 -103 25 -12
33 -11 62 3 22 10 36 25 40 43 4 15 20 40 35 55 37 35 39 79 4 113 -30 31 -62
32 -105 3z"/>
</g>
</svg>
